<?xml version="1.0" encoding="UTF-8"?>
<!DOCTYPE svg PUBLIC "-//W3C//DTD SVG 1.1//EN" "http://www.w3.org/Graphics/SVG/1.1/DTD/svg11.dtd">
<svg xmlns="http://www.w3.org/2000/svg" version="1.1" width="512px" height="512px" style="shape-rendering:geometricPrecision; text-rendering:geometricPrecision; image-rendering:optimizeQuality; fill-rule:evenodd; clip-rule:evenodd" xmlns:xlink="http://www.w3.org/1999/xlink">
<g><path style="opacity:0.966" fill="#f18300" d="M 200.5,-0.5 C 225.5,-0.5 250.5,-0.5 275.5,-0.5C 304.103,3.06986 331.769,10.5699 358.5,22C 364.76,28.0325 365.093,34.3658 359.5,41C 357.1,42.7007 354.433,43.534 351.5,43.5C 333.473,37.1031 315.139,31.6031 296.5,27C 260.631,20.7397 224.631,20.073 188.5,25C 182.042,26.1978 175.709,27.8645 169.5,30C 160.606,34.0301 151.773,38.1968 143,42.5C 129.59,44.4181 124.59,38.7514 128,25.5C 149.784,9.96261 173.951,1.29595 200.5,-0.5 Z"/></g>
<g><path style="opacity:0.967" fill="#f18300" d="M 218.5,41.5 C 272.704,38.8362 323.037,51.3362 369.5,79C 383.154,87.0877 394.654,97.5877 404,110.5C 407.531,123.3 402.698,129.134 389.5,128C 366.443,103.116 338.443,85.7824 305.5,76C 253.544,59.6136 202.21,61.2802 151.5,81C 127.416,91.0941 107.416,106.427 91.5,127C 75.2318,130.39 70.0651,124.223 76,108.5C 91.6175,88.8863 110.784,73.7196 133.5,63C 160.64,50.632 188.973,43.4653 218.5,41.5 Z"/></g>
<g><path style="opacity:0.972" fill="#f18300" d="M 109.5,144.5 C 114.969,140.567 120.303,135.733 125.5,130C 125.272,129.601 124.938,129.435 124.5,129.5C 164.669,95.1697 211.335,80.3364 264.5,85C 317.922,89.1644 359.422,113.331 389,157.5C 399.836,175.175 411.169,192.508 423,209.5C 429.541,216.71 437.207,222.376 446,226.5C 450.928,240.243 446.095,246.409 431.5,245C 418.996,239.838 408.829,231.671 401,220.5C 387.744,198.984 373.744,177.984 359,157.5C 333.042,126.771 299.876,110.271 259.5,108C 192.219,105.384 141.053,132.551 106,189.5C 92.4268,215.126 85.4268,242.459 85,271.5C 83.8333,274 82,275.833 79.5,277C 68.1154,279.645 62.4487,275.145 62.5,263.5C 63.8961,217.939 79.5628,178.273 109.5,144.5 Z"/></g>
<g><path style="opacity:0.952" fill="#f18300" d="M 412.5,126.5 C 417.997,126.328 422.497,128.328 426,132.5C 435.673,147.846 443.173,164.179 448.5,181.5C 446.633,190.268 441.299,193.768 432.5,192C 430.413,191.208 428.579,190.041 427,188.5C 420.721,173.276 413.388,158.609 405,144.5C 401.98,136.033 404.48,130.033 412.5,126.5 Z"/></g>
<g><path style="opacity:0.972" fill="#f18300" d="M 131.5,184.5 C 131.435,184.938 131.601,185.272 132,185.5C 138.429,177.067 145.596,169.234 153.5,162C 153.272,161.601 152.938,161.435 152.5,161.5C 187.888,131.651 228.555,121.151 274.5,130C 325.459,142.96 359.959,174.126 378,223.5C 400.852,242.262 423.518,261.262 446,280.5C 449.39,296.768 443.223,301.935 427.5,296C 408.167,280 388.833,264 369.5,248C 365.333,243.833 361.167,239.667 357,235.5C 335.935,177.374 294.435,149.208 232.5,151C 183.688,158.318 150.855,185.151 134,231.5C 129.703,245.877 128.036,260.544 129,275.5C 131.188,289.255 133.855,302.922 137,316.5C 140.621,337.202 137.621,356.869 128,375.5C 118.322,390.837 104.822,401.337 87.5,407C 73.8558,408.562 69.0224,402.729 73,389.5C 74.1667,388.333 75.3333,387.167 76.5,386C 106.139,374.65 118.639,353.15 114,321.5C 110.82,308.266 108.153,294.933 106,281.5C 102.498,245.832 110.998,213.499 131.5,184.5 Z"/></g>
<g><path style="opacity:0.69" fill="#e67f00" d="M 124.5,129.5 C 124.938,129.435 125.272,129.601 125.5,130C 120.303,135.733 114.969,140.567 109.5,144.5C 114.167,139.167 119.167,134.167 124.5,129.5 Z"/></g>
<g><path style="opacity:0.973" fill="#f18300" d="M 234.5,169.5 C 286.096,167.862 320.596,191.195 338,239.5C 340.245,244.997 343.245,249.997 347,254.5C 357.167,266 368,276.833 379.5,287C 398.426,302.714 417.259,318.548 436,334.5C 439.833,349.333 434.333,354.833 419.5,351C 389.855,328.366 361.688,303.866 335,277.5C 330.76,272.683 326.76,267.683 323,262.5C 317.473,250.918 312.14,239.251 307,227.5C 286.271,198.256 258.437,187.756 223.5,196C 188.26,210.251 171.093,236.418 172,274.5C 175.256,290.782 178.256,307.115 181,323.5C 183.828,344.466 184.162,365.466 182,386.5C 178.652,407.374 168.152,423.541 150.5,435C 141.219,440.14 131.552,444.473 121.5,448C 106.835,448.657 102.335,442.157 108,428.5C 119.767,424.2 130.934,418.7 141.5,412C 151.077,404.017 156.91,393.85 159,381.5C 160.536,369.209 160.87,356.876 160,344.5C 157.747,324.981 154.413,305.647 150,286.5C 144.247,249.197 155.08,217.697 182.5,192C 197.833,179.727 215.167,172.227 234.5,169.5 Z"/></g>
<g><path style="opacity:0.68" fill="#e98000" d="M 152.5,161.5 C 152.938,161.435 153.272,161.601 153.5,162C 145.596,169.234 138.429,177.067 132,185.5C 131.601,185.272 131.435,184.938 131.5,184.5C 137.422,175.909 144.422,168.242 152.5,161.5 Z"/></g>
<g><path style="opacity:0.977" fill="#f28300" d="M 338.5,341.5 C 329.717,331.199 320.051,321.032 309.5,311C 308.906,310.536 308.239,310.369 307.5,310.5C 292.083,294.737 280.749,276.404 273.5,255.5C 271.334,246.633 265.667,240.3 256.5,236.5C 255.893,236.624 255.56,236.957 255.5,237.5C 231.979,232.842 217.979,242.342 213.5,266C 215.815,279.279 220.315,291.779 227,303.5C 238.02,323.19 251.353,341.19 267,357.5C 295.756,387.271 326.59,414.438 359.5,439C 367.729,446.815 367.395,454.149 358.5,461C 353.889,462.007 349.555,461.34 345.5,459C 312.404,433.165 280.904,405.332 251,375.5C 230.833,354.327 214.166,330.661 201,304.5C 195.067,293.207 191.901,281.207 191.5,268.5C 191.857,245.663 202.19,229.163 222.5,219C 248.484,209.538 270.651,215.038 289,235.5C 294.756,245.418 299.756,255.751 304,266.5C 310.605,276.705 317.938,286.372 326,295.5C 354.216,324.394 384.216,351.061 416,375.5C 421.325,389.693 416.491,395.86 401.5,394C 379.434,377.766 358.434,360.266 338.5,341.5 Z"/></g>
<g><path style="opacity:0.361" fill="#e87e00" d="M 255.5,237.5 C 255.56,236.957 255.893,236.624 256.5,236.5C 265.667,240.3 271.334,246.633 273.5,255.5C 269.833,247.167 263.833,241.167 255.5,237.5 Z"/></g>
<g><path style="opacity:0.98" fill="#f18300" d="M 241.5,254.5 C 246.351,253.784 250.518,255.117 254,258.5C 260.9,278.307 270.9,296.307 284,312.5C 299.27,329.892 315.77,346.059 333.5,361C 353.91,376.073 373.743,391.906 393,408.5C 397.249,418.67 394.082,425.003 383.5,427.5C 380.17,427.088 377.17,425.922 374.5,424C 351.167,405.333 327.833,386.667 304.5,368C 284.835,350.34 267.335,330.84 252,309.5C 244.395,297.622 238.395,284.955 234,271.5C 231.679,263.489 234.179,257.823 241.5,254.5 Z"/></g>
<g><path style="opacity:0.959" fill="#f18300" d="M 70.5,297.5 C 76.7342,296.373 81.5675,298.373 85,303.5C 85.9518,309.26 87.2851,314.926 89,320.5C 91.9363,327.2 94.4363,334.033 96.5,341C 94.6173,351.61 88.6173,354.943 78.5,351C 73.2377,344.645 69.4043,337.478 67,329.5C 65.1841,322.903 63.6841,316.236 62.5,309.5C 62.7234,303.682 65.39,299.682 70.5,297.5 Z"/></g>
<g><path style="opacity:0.443" fill="#e87e00" d="M 307.5,310.5 C 308.239,310.369 308.906,310.536 309.5,311C 320.051,321.032 329.717,331.199 338.5,341.5C 327.833,331.5 317.5,321.167 307.5,310.5 Z"/></g>
<g><path style="opacity:0.965" fill="#f18300" d="M 148.5,477.5 C 150.715,472.793 154.382,469.627 159.5,468C 159.272,467.601 158.938,467.435 158.5,467.5C 170.889,459.113 179.722,447.78 185,433.5C 193.283,413.703 195.116,393.369 190.5,372.5C 192.006,362.409 197.673,358.909 207.5,362C 211.916,365.324 214.416,369.824 215,375.5C 219.979,414.885 209.479,449.385 183.5,479C 176.776,485.53 168.776,489.696 159.5,491.5C 151.096,490.136 147.429,485.47 148.5,477.5 Z"/></g>
<g><path style="opacity:0.969" fill="#f18300" d="M 229.5,511.5 C 225.5,511.5 221.5,511.5 217.5,511.5C 213.573,508.817 211.573,504.984 211.5,500C 212.82,482.574 216.653,465.741 223,449.5C 233.096,427.463 249.596,420.629 272.5,429C 285.626,434.126 296.459,442.293 305,453.5C 308.888,460.72 313.555,467.386 319,473.5C 321.705,488.124 315.872,493.291 301.5,489C 292.876,478.04 283.876,467.374 274.5,457C 268.903,451.58 262.236,448.914 254.5,449C 250.281,451.552 247.114,455.052 245,459.5C 239.042,474.623 235.375,490.29 234,506.5C 232.941,508.659 231.441,510.326 229.5,511.5 Z"/></g>
<g><path style="opacity:0.937" fill="#e57f00" d="M 158.5,467.5 C 158.938,467.435 159.272,467.601 159.5,468C 154.382,469.627 150.715,472.793 148.5,477.5C 149.463,471.87 152.796,468.537 158.5,467.5 Z"/></g>
</svg>
